<mxfile host="app.diagrams.net" modified="2023-06-14T16:14:14.404Z" agent="Mozilla/5.0 (X11; Linux x86_64) AppleWebKit/537.36 (KHTML, like Gecko) Chrome/114.0.0.0 Safari/537.36" etag="l_H3Bluo0SHupJXsoRgp" version="21.3.8" type="github">
  <diagram name="Page-1" id="dNRw8ulAyWemwiRzSPOb">
    <mxGraphModel dx="880" dy="483" grid="1" gridSize="10" guides="1" tooltips="1" connect="1" arrows="1" fold="1" page="1" pageScale="1" pageWidth="827" pageHeight="1169" math="0" shadow="0">
      <root>
        <mxCell id="0" />
        <mxCell id="1" parent="0" />
        <mxCell id="PqRyZiSl_PjVdFx8F1YK-5" value="" style="edgeStyle=orthogonalEdgeStyle;rounded=0;orthogonalLoop=1;jettySize=auto;html=1;" edge="1" parent="1" source="PqRyZiSl_PjVdFx8F1YK-2" target="PqRyZiSl_PjVdFx8F1YK-3">
          <mxGeometry relative="1" as="geometry" />
        </mxCell>
        <mxCell id="PqRyZiSl_PjVdFx8F1YK-2" value="Start" style="ellipse;whiteSpace=wrap;html=1;" vertex="1" parent="1">
          <mxGeometry x="360" y="20" width="120" height="60" as="geometry" />
        </mxCell>
        <mxCell id="PqRyZiSl_PjVdFx8F1YK-6" value="" style="edgeStyle=orthogonalEdgeStyle;rounded=0;orthogonalLoop=1;jettySize=auto;html=1;" edge="1" parent="1" source="PqRyZiSl_PjVdFx8F1YK-3" target="PqRyZiSl_PjVdFx8F1YK-4">
          <mxGeometry relative="1" as="geometry" />
        </mxCell>
        <mxCell id="PqRyZiSl_PjVdFx8F1YK-3" value="Input year" style="shape=parallelogram;perimeter=parallelogramPerimeter;whiteSpace=wrap;html=1;fixedSize=1;" vertex="1" parent="1">
          <mxGeometry x="360" y="120" width="120" height="60" as="geometry" />
        </mxCell>
        <mxCell id="PqRyZiSl_PjVdFx8F1YK-4" value="year % 4 == 0" style="rhombus;whiteSpace=wrap;html=1;" vertex="1" parent="1">
          <mxGeometry x="365" y="210" width="110" height="80" as="geometry" />
        </mxCell>
        <mxCell id="PqRyZiSl_PjVdFx8F1YK-7" value="Is not leap year" style="ellipse;whiteSpace=wrap;html=1;" vertex="1" parent="1">
          <mxGeometry x="230" y="340" width="80" height="80" as="geometry" />
        </mxCell>
        <mxCell id="PqRyZiSl_PjVdFx8F1YK-9" value="" style="strokeWidth=2;html=1;shape=mxgraph.flowchart.annotation_2;align=left;labelPosition=right;pointerEvents=1;direction=south;" vertex="1" parent="1">
          <mxGeometry x="270" y="290" width="300" height="50" as="geometry" />
        </mxCell>
      </root>
    </mxGraphModel>
  </diagram>
</mxfile>
